<svg xmlns="http://www.w3.org/2000/svg" viewBox="0 0 96 96" fill="none">
  <rect width="96" height="96" rx="21" fill="#1B4332"/>
  <rect x="16" y="16" width="64" height="64" rx="16" fill="#2D6A4F"/>
  <g stroke="#D8F3DC" stroke-width="2.8" stroke-linecap="round" stroke-linejoin="round" fill="none" transform="translate(28, 24)">
    <line x1="0" y1="44" x2="40" y2="44"/>
    <path d="M20 44 C20 36 20 30 20 23"/>
    <path d="M20 29 C16 25 10 23.5 10 19 C10 14.5 14 13 18 15 C20 16 20 19 20 23"/>
    <path d="M20 23 C24 19 30 18 30 13.5 C30 9 26 8 22 10 C20 11 20 14 20 18"/>
  </g>
</svg>
