<svg xmlns="http://www.w3.org/2000/svg" viewBox="0 0 128 128" fill="none">
  <rect width="128" height="128" rx="28" fill="#1B4332"/>
  <rect x="22" y="22" width="84" height="84" rx="21" fill="#2D6A4F"/>
  <g stroke="#D8F3DC" stroke-width="3.5" stroke-linecap="round" stroke-linejoin="round" fill="none" transform="translate(37, 32)">
    <line x1="0" y1="58" x2="54" y2="58"/>
    <path d="M27 58 C27 47 27 40 27 31"/>
    <path d="M27 39 C22 34 14 32 14 26 C14 20 19 18 24 20.5 C27 22 27 26 27 31"/>
    <path d="M27 31 C32 26 40 24.5 40 18.5 C40 12.5 35 11 30 13.5 C27 15 27 19 27 24"/>
  </g>
</svg>
