<svg xmlns="http://www.w3.org/2000/svg" viewBox="0 0 512 512" fill="none">
  <rect width="512" height="512" rx="112" fill="#1B4332"/>
  <rect x="86" y="86" width="340" height="340" rx="85" fill="#2D6A4F"/>
  <g stroke="#D8F3DC" stroke-width="14" stroke-linecap="round" stroke-linejoin="round" fill="none" transform="translate(150, 130)">
    <line x1="0" y1="230" x2="212" y2="230"/>
    <path d="M106 230 C106 188 106 158 106 120"/>
    <path d="M106 152 C85 133 53 125 53 100 C53 76 75 68 96 78 C106 83 106 98 106 120"/>
    <path d="M106 120 C127 101 159 96 159 71 C159 47 137 40 116 52 C106 57 106 72 106 94"/>
  </g>
</svg>
