<svg xmlns="http://www.w3.org/2000/svg" viewBox="0 0 192 192" fill="none">
  <!-- Background: dark forest -->
  <rect width="192" height="192" rx="42" fill="#1B4332"/>
  <!-- Inner rounded square (sage) -->
  <rect x="32" y="32" width="128" height="128" rx="32" fill="#2D6A4F"/>
  <!-- Sprout icon (line style) -->
  <g stroke="#D8F3DC" stroke-width="5.5" stroke-linecap="round" stroke-linejoin="round" fill="none" transform="translate(56, 48)">
    <line x1="0" y1="88" x2="80" y2="88"/>
    <path d="M40 88 C40 72 40 60 40 46"/>
    <path d="M40 58 C32 50 20 47 20 38 C20 29 28 26 36 30 C40 32 40 38 40 46"/>
    <path d="M40 46 C48 38 60 36 60 27 C60 18 52 16 44 20 C40 22 40 28 40 36"/>
  </g>
</svg>
