<svg xmlns="http://www.w3.org/2000/svg" viewBox="0 0 144 144" fill="none">
  <rect width="144" height="144" rx="32" fill="#1B4332"/>
  <rect x="24" y="24" width="96" height="96" rx="24" fill="#2D6A4F"/>
  <g stroke="#D8F3DC" stroke-width="4" stroke-linecap="round" stroke-linejoin="round" fill="none" transform="translate(42, 36)">
    <line x1="0" y1="66" x2="60" y2="66"/>
    <path d="M30 66 C30 53 30 45 30 35"/>
    <path d="M30 44 C24 38 15 36 15 29 C15 22 21 20 27 23 C30 25 30 29 30 35"/>
    <path d="M30 35 C36 29 45 27.5 45 20.5 C45 14 39 12 33 15 C30 17 30 21 30 27"/>
  </g>
</svg>
